<?xml version="1.0" encoding="UTF-8"?>
<svg id="Layer_1" data-name="Layer 1" xmlns="http://www.w3.org/2000/svg" viewBox="0 0 760.82 208.8">
  <defs>
    <style>
      .cls-1 {
        fill: #b3e400;
      }

      .cls-2 {
        fill: #e1e1e1;
      }

      .cls-3 {
        fill: #b3e400;
      }
    </style>
  </defs>
  <g>
    <g>
      <path class="cls-2" d="M295.51,77.33v-2.99s19.62.06,19.62.06l10.9,40.58,1.56,8.11h2.28s.02-8.1.02-8.1l11.14-40.51,20.18.06,10.76,40.44-.02,8.25h2.28s1.47-8.24,1.47-8.24l11-40.37,19.04.06v2.99s-19.83,69.23-19.83,69.23l-22.61-.07-10.62-37.31-.98-7.97h-2.29s-1.03,7.96-1.03,7.96l-10.99,37.24-22.04-.07-19.83-69.34Z"/>
      <path class="cls-2" d="M411.8,142.98c-4.33-3.62-6.49-8.51-6.47-14.67.02-6.35,2.16-11.35,6.41-14.99,4.26-3.64,11.16-6.01,20.7-7.12l20.9-2.36v-3.7c.02-4.27-1.11-7.52-3.4-9.76-2.28-2.23-5.62-3.36-10.01-3.37-4.29-.01-7.59,1.04-9.88,3.17-2.3,2.13-3.5,5.18-3.61,9.16l-19.61-.06c.12-8.44,3.1-14.9,8.93-19.39,5.83-4.49,14.05-6.72,24.64-6.68,22.13.07,33.18,9.35,33.12,27.84l-.14,46.09-15.74-.05.02-5.69,1.6-6.82h-2.15c-2.02,3.97-5.25,7.28-9.69,9.92-4.45,2.64-10.15,3.95-17.12,3.93-8.01-.02-14.19-1.84-18.52-5.46ZM428,132.57c1.86,1.48,4.45,2.22,7.79,2.23,5.06.02,9.24-1.39,12.54-4.23,3.3-2.83,4.96-6.58,4.97-11.22v-3.84s-17.03,1.8-17.03,1.8c-3.91.46-6.73,1.45-8.45,2.96-1.72,1.51-2.59,3.5-2.59,5.97,0,2.75.92,4.86,2.77,6.34Z"/>
      <path class="cls-2" d="M492.19,143c-5.43-3.76-8.51-9.49-9.25-17.17l19.04.06c.66,3.23,2.22,5.72,4.7,7.48,2.47,1.76,5.86,2.65,10.15,2.66,3.91.01,7.04-.71,9.38-2.18,2.34-1.46,3.52-3.57,3.53-6.32,0-2.28-.9-4.1-2.7-5.49-1.81-1.38-4.77-2.45-8.86-3.23l-13.73-2.46c-6.68-1.35-11.75-3.76-15.22-7.23-3.47-3.47-5.2-7.67-5.19-12.61.02-7.11,2.88-12.75,8.57-16.9,5.69-4.15,13.64-6.22,23.85-6.19s17.43,1.97,22.81,5.83c5.38,3.86,8.34,9.39,8.9,16.6l-19.04-.06c-.47-3.04-1.87-5.39-4.2-7.06-2.33-1.67-5.6-2.51-9.8-2.52-3.82-.01-6.83.67-9.02,2.04-2.2,1.37-3.3,3.19-3.31,5.47,0,1.99.94,3.63,2.85,4.92,1.9,1.29,4.86,2.32,8.86,3.09l13.3,2.32c7.53,1.54,13.11,4.07,16.72,7.59,3.61,3.52,5.42,7.79,5.4,12.82-.12,7.59-3.26,13.53-9.43,17.83-6.17,4.3-14.36,6.43-24.56,6.4-10.4-.03-18.31-1.93-23.74-5.69Z"/>
      <path class="cls-2" d="M563.42,143.43c-4.33-3.62-6.49-8.51-6.47-14.67.02-6.35,2.16-11.35,6.41-14.99,4.26-3.64,11.16-6.01,20.7-7.12l20.9-2.36v-3.7c.02-4.27-1.11-7.52-3.4-9.76-2.28-2.23-5.62-3.36-10.01-3.37-4.29-.01-7.59,1.04-9.88,3.17-2.3,2.13-3.5,5.18-3.61,9.16l-19.61-.06c.12-8.44,3.1-14.9,8.93-19.39,5.83-4.49,14.05-6.72,24.64-6.68,22.13.07,33.18,9.35,33.12,27.84l-.14,46.09-15.74-.05.02-5.69,1.6-6.82h-2.15c-2.02,3.97-5.25,7.28-9.69,9.92-4.45,2.64-10.15,3.95-17.12,3.93-8.01-.02-14.19-1.84-18.52-5.46ZM579.63,133.02c1.86,1.48,4.45,2.22,7.79,2.23,5.06.02,9.24-1.39,12.54-4.23,3.3-2.83,4.96-6.58,4.97-11.22v-3.84s-17.03,1.8-17.03,1.8c-3.91.46-6.73,1.45-8.45,2.96-1.72,1.51-2.59,3.5-2.59,5.97,0,2.75.92,4.86,2.77,6.34Z"/>
      <path class="cls-2" d="M660.72,145.14c-4.19-2.67-7.33-6.04-9.42-10.13h-1.86s1.55,6.83,1.55,6.83l-.02,5.83-15.89-.05.31-102.43,20.32.06-.09,31.16-4.45,5.68-1.59,5.97h1.86c2.11-4.16,5.27-7.57,9.48-10.21,4.21-2.64,9.41-3.96,15.61-3.94,9.35.03,16.69,3.37,22.01,10.02,5.32,6.66,7.97,15.91,7.93,27.77-.04,11.86-2.74,21.07-8.1,27.65-5.37,6.58-12.67,9.85-21.93,9.82-6.3-.02-11.54-1.36-15.73-4.03ZM681.67,128.13c2.68-3.88,4.03-9.24,4.06-16.06.02-7.21-1.27-12.83-3.89-16.87-2.61-4.04-6.4-6.07-11.36-6.08-4.87-.01-8.64,1.92-11.32,5.8-2.68,3.88-4.04,9.19-4.06,15.92-.02,7.3,1.27,12.98,3.88,17.01,2.61,4.04,6.4,6.07,11.36,6.08,4.87.01,8.64-1.92,11.32-5.8Z"/>
      <path class="cls-2" d="M715.8,74.8l-.22,71.87,20.33.06.22-71.93h-20.33Z"/>
    </g>
    <polygon class="cls-3" points="715.8 74.8 715.86 54.59 736.19 54.65 715.8 74.8"/>
  </g>
  <g>
    <polygon class="cls-1" points="270.41 74.8 206.47 184.11 163.73 159.42 179.34 131.95 179.34 146.72 188.18 146.74 194.69 106.48 227.67 50.1 270.41 74.8"/>
    <polygon class="cls-1" points="25.11 50.1 103.48 184.11 146.22 159.42 130.61 131.95 130.61 146.72 121.55 146.74 114.96 105.96 67.85 25.41 25.11 50.1"/>
    <rect class="cls-1" x="130.61" y="74.8" width="48.73" height="90.62"/>
  </g>
</svg>